<?xml version="1.0" encoding="UTF-8" standalone="no"?>
<svg
   inkscape:export-ydpi="26.507011"
   inkscape:export-xdpi="26.507011"
   inkscape:export-filename="../../forum-docling/branding/wugly-docling-2.png"
   sodipodi:docname="wugly-docling.svg"
   inkscape:version="1.2 (dc2aeda, 2022-05-15)"
   version="1.1"
   id="svg2"
   viewBox="0 0 1814.5445 1474.0997"
   height="416.02371mm"
   width="512.1048mm"
   xmlns:inkscape="http://www.inkscape.org/namespaces/inkscape"
   xmlns:sodipodi="http://sodipodi.sourceforge.net/DTD/sodipodi-0.dtd"
   xmlns="http://www.w3.org/2000/svg"
   xmlns:svg="http://www.w3.org/2000/svg"
   xmlns:rdf="http://www.w3.org/1999/02/22-rdf-syntax-ns#"
   xmlns:cc="http://creativecommons.org/ns#"
   xmlns:dc="http://purl.org/dc/elements/1.1/">
  <style
     id="style29820" />
  <defs
     id="defs4" />
  <sodipodi:namedview
     lock-margins="true"
     inkscape:window-maximized="0"
     inkscape:window-y="25"
     inkscape:window-x="0"
     inkscape:window-height="1067"
     inkscape:window-width="1738"
     fit-margin-bottom="10"
     fit-margin-right="10"
     fit-margin-left="10"
     fit-margin-top="10"
     showgrid="false"
     inkscape:current-layer="layer1"
     inkscape:document-units="px"
     inkscape:cy="172.53405"
     inkscape:cx="2234.4574"
     inkscape:zoom="0.1767767"
     inkscape:pageshadow="2"
     inkscape:pageopacity="0.0"
     borderopacity="1.0"
     bordercolor="#666666"
     pagecolor="#ffffff"
     id="base"
     inkscape:showpageshadow="2"
     inkscape:pagecheckerboard="0"
     inkscape:deskcolor="#d1d1d1" />
  <metadata
     id="metadata7">
    <rdf:RDF>
      <cc:Work
         rdf:about="">
        <dc:format>image/svg+xml</dc:format>
        <dc:type
           rdf:resource="http://purl.org/dc/dcmitype/StillImage" />
      </cc:Work>
    </rdf:RDF>
  </metadata>
  <g
     transform="translate(2019.3959,278.48823)"
     id="layer1"
     inkscape:groupmode="layer"
     inkscape:label="Layer 1">
    <ellipse
       style="color:#000000;display:inline;overflow:visible;visibility:visible;fill:#2ca02c;fill-opacity:1;fill-rule:nonzero;stroke:#282828;stroke-width:1.81038;stroke-linecap:round;stroke-linejoin:miter;stroke-miterlimit:4;stroke-dasharray:none;stroke-dashoffset:0;stroke-opacity:1;marker:none;enable-background:accumulate"
       id="path4290"
       cx="1138.7441"
       cy="416.46115"
       inkscape:export-xdpi="11.569163"
       inkscape:export-ydpi="11.569163"
       transform="scale(-1,1)"
       rx="712.60577"
       ry="694.04419" />
    <g
       id="g1500"
       transform="matrix(0.79276611,-0.08799393,0.08799393,0.79276611,-247.75136,133.23309)">
      <path
         inkscape:connector-curvature="0"
         style="fill:#f7e43d;fill-opacity:1;stroke:#000000;stroke-width:1.91619;stroke-opacity:1"
         d="m -1016.5656,-294.53308 c 19.26831,0.21086 38.55747,1.74397 57.72153,4.67445 210.96003,15.46515 361.57935,233.517689 332.63856,436.5432 -6.39758,143.2301 -131.10758,235.11983 -172.73776,364.39041 -28.07168,117.49686 72.78723,190.28942 170.18907,233.3485 a 744.37269,744.37269 0 0 1 -525.021,217.41639 744.37269,744.37269 0 0 1 -499.9346,-193.98798 c 5.8798,-7.35815 11.7771,-14.64616 17.6761,-21.83782 54.9782,-86.40001 171.2403,-128.72868 190.8592,-236.12922 0.7875,-104.12308 -116.3389,-135.10785 -190.0359,-178.00727 -69.1347,-32.39049 -151.2611,-117.24456 -102.4712,-196.47309 77.4742,-82.855351 228.0057,-27.18956 292.6867,-130.1923612 57.5315,-180.1306088 242.1692,-301.7835388 428.4293,-299.7452088 z"
         id="path4237" />
      <path
         style="fill:#000000;stroke-width:1.91619"
         d="m -1311.7006,110.13243 c 40.2735,-2.43483 69.3741,-39.396771 76.2205,-76.938141 7.1092,-32.0819002 5.8814,-67.74681 -9.2464,-97.27884 -14.2848,-19.536149 -45.3821,-23.01206 -62.0888,-4.64977 -28.5918,25.68539 -35.7668,65.8184298 -38.1425,102.35345 -3.4715,28.2134 2.7637,65.67391 33.2572,76.513301 z"
         id="path4259"
         inkscape:connector-curvature="0" />
      <path
         sodipodi:nodetypes="csaccccc"
         inkscape:connector-curvature="0"
         id="path4261"
         d="m -1452.081,13.497259 c 5.9818,88.001121 49.2758,169.208021 127.0932,205.054501 49.7837,22.9329 53.042,70.78334 40.4686,106.67624 -20.7756,59.30764 -96.5045,87.78883 -162.2467,96.00645 -52.9196,-3.89895 -99.9551,-35.93034 -149.3103,-54.34916 -76.4857,-35.68181 -145.2035,-92.77777 -189.0265,-165.11216 -40.4663,-56.95154 7.0084,-127.753651 74.5421,-108.654191 101.3069,-10.63864 200.2449,-19.31069 258.4796,-79.62168 z"
         style="fill:#f23a0d;fill-opacity:1;stroke:#000000;stroke-width:1.91619;stroke-opacity:1" />
    </g>
    <g
       id="g1352"
       transform="matrix(0.97447892,0,0,1.0202078,391.78131,-1348.9278)">
      <g
         id="g781"
         transform="matrix(-1,0,0,1,-4820.7623,1403.178)">
        <g
           id="g779"
           transform="translate(-0.66291261,5.3033009)">
          <path
             id="path775"
             style="fill:#ffffff;stroke-width:0.764574"
             d="m -2496.7682,401.45284 c 29.4282,0.80604 67.3088,12.83092 92.6441,30.10453 18.7243,12.76627 30.448,27.0265 35.3759,43.0302 0.7918,2.57162 1.8954,4.60242 2.6294,4.83962 2.1214,0.68606 3.0472,3.98764 5.7312,20.44372 8.5395,52.357 13.4565,117.49844 14.4177,191.01518 0.3728,28.52422 0.2551,35.19202 -0.7342,41.67481 -2.43,15.92273 -8.1496,30.98223 -15.7141,41.37926 -14.831,20.38447 -43.2491,34.88851 -79.466,40.55728 -12.1109,1.89538 -42.3506,1.89703 -57.1875,0.003 -24.5316,-3.13312 -44.1256,-7.32805 -69.6148,-14.89986 -58.0052,-17.23089 -69.9449,-20.32038 -89.068,-23.04595 -9.572,-1.36427 0.9606,-9.66416 -7.8992,-9.48344 l -19.6875,-261.7624 c 1.3005,0.46407 1.7664,0.54715 3.1055,1.02749 34.6805,12.44024 43.4098,15.23565 61.5948,19.72564 12.7678,3.15247 44.6887,9.0104 44.6887,8.20149 0,-0.13219 -0.5141,-1.72863 -1.1444,-3.5489 -1.5234,-4.39925 -1.6498,-11.68367 -0.5493,-31.61458 0.504,-9.12622 1.2922,-25.96012 1.7523,-37.41013 0.8652,-21.5251 1.2463,-23.78437 4.3982,-26.03377 0.7892,-0.5633 1.9826,-2.35924 2.6514,-3.98992 6.5529,-15.98014 28.4268,-26.85511 60.0421,-29.85279 3.7978,-0.36014 7.8297,-0.4754 12.0337,-0.36027 z"
             sodipodi:nodetypes="ssscssssscssccssssssscsss" />
          <path
             id="path777"
             style="fill:#000000;stroke-width:0.764574"
             d="m -2496.7682,399.5525 c 29.4285,0.80604 67.3106,12.83093 92.6459,30.10454 18.7244,12.76627 30.4481,27.0265 35.376,43.03019 0.7918,2.57162 1.8935,4.60011 2.6275,4.83732 2.1214,0.68604 3.0472,3.98994 5.7312,20.44603 8.5395,52.35699 13.4565,117.49843 14.4177,191.01517 0.3728,28.52422 0.2551,35.19202 -0.7342,41.67481 -2.43,15.92274 -8.1478,30.98222 -15.7123,41.37927 -14.831,20.38445 -43.2509,34.88852 -79.4678,40.55728 -12.1109,1.89537 -42.3487,1.89493 -57.1856,0 -24.5317,-3.13313 -44.1275,-7.32577 -69.6167,-14.89756 -58.0052,-17.2309 -69.9449,-20.32038 -89.068,-23.04595 -9.5717,-1.36423 -18.7273,-1.69541 -27.5867,-1.51469 v -29.65657 c 3.5153,-0.10983 7.3244,-0.67981 10.5432,-0.49182 26.6938,1.55904 47.9996,6.22991 100.362,21.99768 45.7193,13.76735 67.857,18.58655 92.0288,20.03504 25.7667,1.54405 53.6952,-3.47482 72.3852,-13.0065 23.7284,-12.10114 33.7116,-29.15146 35.9656,-61.42353 0.5362,-7.67885 -0.4595,-44.35072 -2.6935,-99.17309 -0.8044,-19.73812 -1.6545,-44.04809 -1.8896,-54.02326 -0.2351,-9.97516 -0.6143,-20.9669 -0.8423,-24.42673 l -0.4157,-6.29197 -6.361,5.19982 c -14.7873,12.08879 -38.4918,21.36296 -65.1343,25.47962 -49.5832,7.66133 -100.3733,7.14429 -149.5258,-1.5193 -23.933,-4.21842 -45.0512,-10.37982 -84.4226,-23.72941 v -28.70296 c 1.3005,0.46408 -0.8853,1.21006 0.4538,1.69041 34.6805,12.44024 46.0615,14.57504 64.2465,19.06503 12.7678,3.15247 44.6906,9.01038 44.6906,8.2015 0,-0.1322 -0.516,-1.72862 -1.1463,-3.54891 -1.5234,-4.39924 -1.6498,-11.68367 -0.5493,-31.61458 0.504,-9.12624 1.2922,-25.96242 1.7523,-37.41244 0.8652,-21.5251 1.2463,-23.78206 4.3982,-26.03146 0.7892,-0.5633 1.9826,-2.35924 2.6514,-3.98992 6.5529,-15.98014 28.4268,-26.85511 60.0421,-29.85278 3.7978,-0.36015 7.8296,-0.47541 12.0337,-0.36028 z m -3.4021,24.01346 c -22.4474,-0.83467 -39.6361,3.88492 -44.729,12.28146 -5.1588,8.505 2.7065,24.04411 15.3351,30.29385 5.9793,2.95912 11.0926,4.04533 19.0301,4.04533 8.3047,0 13.9419,-1.13041 21.5076,-4.31318 6.8191,-2.86867 10.022,-3.22909 13.2825,-1.49622 1.2197,0.64828 3.0356,0.93866 4.2773,0.68577 4.1491,-0.84553 6.9396,4.71674 4.3231,8.61712 -0.5617,0.83729 -1.2469,2.71454 -1.5234,4.17232 -0.2764,1.45784 -1.0123,3.22637 -1.6351,3.92759 -2.8105,3.16428 -3.4343,24.16533 -1.1225,37.80035 0.8277,4.88144 1.5107,9.80924 1.5107,10.9515 0,1.14229 0.2642,2.24045 0.5822,2.44059 1.0585,0.66657 26.1825,-3.34602 35.1746,-5.61775 14.5315,-3.67123 28.5459,-11.26294 35.6506,-19.31464 5.0892,-5.76748 6.9147,-10.09 7.2473,-17.15573 0.3505,-7.448 -1.0173,-11.9 -5.9875,-19.47165 -13.5519,-20.64523 -43.8942,-37.02875 -84.4501,-45.59782 -5.53,-1.16858 -12.6146,-2.03099 -18.4735,-2.24889 z m -54.2102,53.8062 0.2142,8.56401 c 0.117,4.70921 0.5459,12.39939 0.954,17.09108 0.4081,4.69172 0.7416,11.14171 0.7416,14.33185 0,5.62827 -1.5985,13.1511 -3.2263,15.18157 -2.0023,2.49791 0.5875,2.75882 30.2948,3.05016 16.525,0.16208 29.7882,-0.0137 30.3387,-0.40176 0.7455,-0.52553 0.8033,-1.5006 0.2417,-4.09845 -1.4575,-6.74294 -1.7439,-14.4027 -0.8954,-23.96723 0.475,-5.35399 1.1795,-10.85132 1.5638,-12.21683 l 0.6976,-2.48215 -4.7003,0.65113 c -2.5858,0.35795 -8.7924,0.60908 -13.7915,0.55877 -10.5906,-0.10681 -18.8127,-1.95052 -27.4347,-6.15344 -3.0082,-1.46643 -7.6137,-4.34045 -10.2338,-6.38663 z"
             sodipodi:nodetypes="ssscsssscsssccssssssscccssccssssscscsscssssscssssscssssscccsssssssccccscc" />
        </g>
      </g>
      <g
         id="g773"
         transform="translate(1734.1794,1410.678)">
        <g
           id="g764"
           transform="translate(-0.66291261,5.3033009)">
          <path
             id="path435"
             style="fill:#ffffff;stroke-width:0.764574"
             d="m -2496.7682,401.45284 c 29.4282,0.80604 67.3088,12.83092 92.6441,30.10453 18.7243,12.76627 30.448,27.0265 35.3759,43.0302 0.7918,2.57162 1.8954,4.60242 2.6294,4.83962 2.1214,0.68606 3.0472,3.98764 5.7312,20.44372 8.5395,52.357 13.4565,117.49844 14.4177,191.01518 0.3728,28.52422 0.2551,35.19202 -0.7342,41.67481 -2.43,15.92273 -8.1496,30.98223 -15.7141,41.37926 -14.831,20.38447 -43.2491,34.88851 -79.466,40.55728 -12.1109,1.89538 -42.3506,1.89703 -57.1875,0.003 -24.5316,-3.13312 -44.1256,-7.32805 -69.6148,-14.89986 -58.0052,-17.23089 -69.9449,-20.32038 -89.068,-23.04595 -9.572,-1.36427 -18.7269,-1.69541 -27.5867,-1.51469 V 505.30879 c 1.3005,0.46407 1.7664,0.54715 3.1055,1.02749 34.6805,12.44024 43.4098,15.23565 61.5948,19.72564 12.7678,3.15247 44.6887,9.0104 44.6887,8.20149 0,-0.13219 -0.5141,-1.72863 -1.1444,-3.5489 -1.5234,-4.39925 -1.6498,-11.68367 -0.5493,-31.61458 0.504,-9.12622 1.2922,-25.96012 1.7523,-37.41013 0.8652,-21.5251 1.2463,-23.78437 4.3982,-26.03377 0.7892,-0.5633 1.9826,-2.35924 2.6514,-3.98992 6.5529,-15.98014 28.4268,-26.85511 60.0421,-29.85279 3.7978,-0.36014 7.8297,-0.4754 12.0337,-0.36027 z" />
          <path
             id="path437"
             style="fill:#000000;stroke-width:0.764574"
             d="m -2496.7682,399.5525 c 29.4285,0.80604 67.3106,12.83093 92.6459,30.10454 18.7244,12.76627 30.4481,27.0265 35.376,43.03019 0.7918,2.57162 1.8935,4.60011 2.6275,4.83732 2.1214,0.68604 3.0472,3.98994 5.7312,20.44603 8.5395,52.35699 13.4565,117.49843 14.4177,191.01517 0.3728,28.52422 0.2551,35.19202 -0.7342,41.67481 -2.43,15.92274 -8.1478,30.98222 -15.7123,41.37927 -14.831,20.38445 -43.2509,34.88852 -79.4678,40.55728 -12.1109,1.89537 -42.3487,1.89493 -57.1856,0 -24.5317,-3.13313 -44.1275,-7.32577 -69.6167,-14.89756 -58.0052,-17.2309 -69.9449,-20.32038 -89.068,-23.04595 -9.5717,-1.36423 -18.7273,-1.69541 -27.5867,-1.51469 v -29.65657 c 3.5153,-0.10983 7.3244,-0.67981 10.5432,-0.49182 26.6938,1.55904 47.9996,6.22991 100.362,21.99768 45.7193,13.76735 67.857,18.58655 92.0288,20.03504 25.7667,1.54405 53.6952,-3.47482 72.3852,-13.0065 23.7284,-12.10114 33.7116,-29.15146 35.9656,-61.42353 0.5362,-7.67885 -0.4595,-44.35072 -2.6935,-99.17309 -0.8044,-19.73812 -1.6545,-44.04809 -1.8896,-54.02326 -0.2351,-9.97516 -0.6143,-20.9669 -0.8423,-24.42673 l -0.4157,-6.29197 -6.361,5.19982 c -14.7873,12.08879 -38.4918,21.36296 -65.1343,25.47962 -49.5832,7.66133 -100.3733,7.14429 -149.5258,-1.5193 -23.933,-4.21842 -45.0512,-10.37982 -84.4226,-23.72941 v -28.70296 c 1.3005,0.46408 -0.8853,1.21006 0.4538,1.69041 34.6805,12.44024 46.0615,14.57504 64.2465,19.06503 12.7678,3.15247 44.6906,9.01038 44.6906,8.2015 0,-0.1322 -0.516,-1.72862 -1.1463,-3.54891 -1.5234,-4.39924 -1.6498,-11.68367 -0.5493,-31.61458 0.504,-9.12624 1.2922,-25.96242 1.7523,-37.41244 0.8652,-21.5251 1.2463,-23.78206 4.3982,-26.03146 0.7892,-0.5633 1.9826,-2.35924 2.6514,-3.98992 6.5529,-15.98014 28.4268,-26.85511 60.0421,-29.85278 3.7978,-0.36015 7.8296,-0.47541 12.0337,-0.36028 z m -3.4021,24.01346 c -22.4474,-0.83467 -39.6361,3.88492 -44.729,12.28146 -5.1588,8.505 2.7065,24.04411 15.3351,30.29385 5.9793,2.95912 11.0926,4.04533 19.0301,4.04533 8.3047,0 13.9419,-1.13041 21.5076,-4.31318 6.8191,-2.86867 10.022,-3.22909 13.2825,-1.49622 1.2197,0.64828 3.0356,0.93866 4.2773,0.68577 4.1491,-0.84553 6.9396,4.71674 4.3231,8.61712 -0.5617,0.83729 -1.2469,2.71454 -1.5234,4.17232 -0.2764,1.45784 -1.0123,3.22637 -1.6351,3.92759 -2.8105,3.16428 -3.4343,24.16533 -1.1225,37.80035 0.8277,4.88144 1.5107,9.80924 1.5107,10.9515 0,1.14229 0.2642,2.24045 0.5822,2.44059 1.0585,0.66657 26.1825,-3.34602 35.1746,-5.61775 14.5315,-3.67123 28.5459,-11.26294 35.6506,-19.31464 5.0892,-5.76748 6.9147,-10.09 7.2473,-17.15573 0.3505,-7.448 -1.0173,-11.9 -5.9875,-19.47165 -13.5519,-20.64523 -43.8942,-37.02875 -84.4501,-45.59782 -5.53,-1.16858 -12.6146,-2.03099 -18.4735,-2.24889 z m -54.2102,53.8062 0.2142,8.56401 c 0.117,4.70921 0.5459,12.39939 0.954,17.09108 0.4081,4.69172 0.7416,11.14171 0.7416,14.33185 0,5.62827 -1.5985,13.1511 -3.2263,15.18157 -2.0023,2.49791 0.5875,2.75882 30.2948,3.05016 16.525,0.16208 29.7882,-0.0137 30.3387,-0.40176 0.7455,-0.52553 0.8033,-1.5006 0.2417,-4.09845 -1.4575,-6.74294 -1.7439,-14.4027 -0.8954,-23.96723 0.475,-5.35399 1.1795,-10.85132 1.5638,-12.21683 l 0.6976,-2.48215 -4.7003,0.65113 c -2.5858,0.35795 -8.7924,0.60908 -13.7915,0.55877 -10.5906,-0.10681 -18.8127,-1.95052 -27.4347,-6.15344 -3.0082,-1.46643 -7.6137,-4.34045 -10.2338,-6.38663 z"
             sodipodi:nodetypes="ssscsssscsssccssssssscccssccssssscscsscssssscssssscssssscccsssssssccccscc" />
        </g>
      </g>
      <path
         id="path439"
         style="fill:#ffffff;stroke-width:0.764574"
         d="m -955.7677,1929.9851 c 0.5668,3.1388 0.7731,9.2045 0.5475,16.2066 -0.5775,17.9234 -0.4018,44.68 0.564,86.0535 0.9328,39.9539 1.4205,45.7178 4.682,55.3556 l 1.4941,4.4194 -5.0647,1.5308 c -26.3795,7.9742 -51.5044,13.9521 -100.5029,23.9072 -35.9524,7.3046 -51.322,10.8393 -99.2249,22.8197 -84.2162,21.0623 -136.2301,29.6983 -209.0551,34.7155 -54.7477,3.7717 -119.6206,3.7721 -179.513,0 -2.3542,-0.1483 -4.8873,-0.4697 -7.2546,-0.6303 v 318.1985 c 83.9473,2.7453 167.5486,-3.8776 268.5718,-20.8016 55.5674,-9.3091 111.125,-20.77 215.1141,-44.374 28.7449,-6.5247 61.8064,-13.9603 73.4711,-16.5232 55.4685,-12.1871 86.5581,-22.2099 110.9656,-35.773 42.121,-23.4061 65.1049,-53.3374 74.5111,-97.035 4.0478,-18.8048 5.5002,-34.4573 6.4709,-69.6966 0.3603,-13.077 0.8179,-23.9427 1.0162,-24.145 0.011,-0.013 0.299,0.072 0.3241,0.064 l -0.4449,-12.9211 -11.933,-87.4711 -25.567,-78.0367 c -18.1017,-11.1263 -79.7952,-41.0966 -119.1724,-75.8632 z"
         sodipodi:nodetypes="cssccsssssccsssssscccccc" />
      <path
         id="path681"
         style="fill:#ffffff;stroke-width:0.764574"
         d="m -2137.622,1920.4124 c -7.1066,11.9772 -1.0402,10.6042 -0.606,14.2602 -0.5668,3.1388 -0.7731,9.2045 -0.5475,16.2066 0.5775,17.9234 2.7455,39.9925 1.7797,81.366 -0.9328,39.9539 -4.233,52.2803 -7.4945,61.9181 l -1.4941,4.4194 5.0647,1.5308 c 26.3798,7.9733 51.5044,13.9521 100.5029,23.9072 35.9524,7.3046 51.322,10.8393 99.2249,22.8197 84.2162,21.0623 144.1989,23.1358 217.0239,28.153 54.7477,3.7717 119.6206,3.7721 179.513,0 2.3542,-0.1483 4.8873,-0.4697 7.2546,-0.6303 v 318.1985 c -83.9473,2.7453 -167.5486,-3.8776 -268.5718,-20.8016 -55.5674,-9.3091 -111.125,-20.77 -215.1141,-44.374 -28.7449,-6.5247 -61.8064,-13.9603 -73.4711,-16.5232 -55.4685,-12.1871 -86.5581,-22.2099 -110.9656,-35.773 -42.121,-23.4061 -65.1049,-53.3374 -74.5111,-97.035 -4.0478,-18.8048 -5.5002,-34.4573 -6.4709,-69.6966 -0.3603,-13.077 -0.8179,-23.9427 -1.0162,-24.145 -0.011,-0.013 -0.299,0.072 -0.3241,0.064 l 0.4449,-12.9211 11.933,-87.4711 25.567,-78.0367 z"
         sodipodi:nodetypes="ccssccsssssccsssssscccccc" />
      <g
         aria-label="the wugly docling"
         transform="matrix(0.97246195,-0.08024753,0.07201803,1.0835852,-2287.6437,2156.3308)"
         id="text30051-7"
         style="font-size:150px;line-height:1.25;font-family:serif;-inkscape-font-specification:serif;letter-spacing:4.6875px;stroke-width:0.784946">
        <path
           d="M 105.55427,62.731821 94.463119,84.864125 q -1.968844,3.928812 -1.316853,7.368667 0.717472,3.472669 3.729561,4.982116 2.553727,1.279748 7.925763,1.022561 1.27753,-0.09711 2.25973,0.3951 1.57153,0.787538 1.92953,3.342741 0.35799,2.55521 -0.75769,4.78154 -2.03447,4.05977 -8.357523,5.56078 Q 86.606948,115.58114 73.37995,108.9527 62.903119,103.70245 59.504806,94.626268 56.139307,85.484607 60.995789,75.793539 L 76.155885,45.54169 q 0.754724,-1.506044 0.525913,-2.030329 -0.130517,-0.556952 -1.636561,-1.311675 l -6.74446,-3.379848 q -1.898925,-0.951608 -2.12744,-1.803442 -0.195701,-0.917315 0.952791,-3.209122 l 1.443819,-2.881128 q 1.049902,-1.931592 2.949863,-2.126405 l 39.44038,-3.829454 q 1.40849,-0.03148 3.04549,0.788868 l 5.3039,2.657939 q 1.637,0.820352 1.76707,1.868627 0.22837,1.015608 -0.88731,3.241935 l -4.42989,8.839826 q -0.98443,1.964405 -0.69043,2.849054 0.35947,0.917462 2.38936,1.934698 l 12.11383,6.070601 q 2.42277,1.214121 2.68366,2.491798 0.2937,1.212197 -1.15012,4.093326 l -1.93603,3.863331 q -1.57508,3.143049 -3.11527,3.927776 -1.50737,0.719246 -3.93014,-0.494874 L 110.2724,61.163847 q -1.83345,-0.918794 -2.81639,-0.592133 -0.98294,0.326662 -1.90174,2.160107 z"
           style="font-style:normal;font-variant:normal;font-weight:normal;font-stretch:normal;font-family:'Cooper Black';-inkscape-font-specification:'Cooper Black, ';text-align:start;text-anchor:start;stroke-width:0.784946"
           id="path853-1" />
        <path
           d="m 183.12841,50.16989 -12.29292,28.134912 q -2.17818,5.044985 1.08547,6.351985 1.63182,0.653499 4.09421,-0.963985 10.43459,-6.945726 21.44939,-2.534602 10.81082,4.329436 14.56089,13.484257 1.68484,4.067305 1.23419,8.541763 -0.38265,4.50169 -3.24187,12.03533 l -9.2178,24.79038 q -1.21177,3.22288 -1.0629,5.01824 0.21687,1.82259 2.174,5.20997 1.34551,2.35347 0.47418,4.52924 -2.94075,7.34319 -25.10633,-1.53351 -19.71785,-7.89646 -16.9677,-14.76371 0.46289,-1.15587 1.04792,-1.63166 0.58502,-0.47579 3.68674,-2.31062 4.35329,-2.59597 10.3437,-17.55434 3.62148,-9.04301 3.58265,-13.87129 0.0163,-6.541943 -5.76311,-8.856421 -4.14755,-1.660979 -7.31741,0.541049 -2.29918,1.60395 -4.69535,7.587302 l -5.25522,13.12256 q -3.00939,8.89366 -3.13232,10.18568 -0.12293,1.29202 1.41222,5.53607 0.72005,1.9452 -0.0424,3.84899 -3.07689,7.68316 -23.06671,-0.32221 -23.38945,-9.36683 -20.20364,-17.32196 0.73519,-1.8358 1.86432,-2.48818 1.15635,-0.72036 4.89691,-1.58929 3.3189,-0.80109 7.48384,-8.44301 4.26016,-7.682675 11.72095,-26.312642 5.85427,-14.618405 7.29837,-20.588539 0.57214,-2.216687 0.20543,-3.468104 -0.27149,-1.29218 -1.83484,-3.101714 -3.34421,-3.863971 -2.20058,-6.719659 1.36146,-3.399629 5.40121,-4.227629 4.03976,-0.827999 14.06302,0.345746 13.60012,1.501619 20.87533,4.415139 3.94357,1.579291 2.44613,4.924462 z"
           style="font-style:normal;font-variant:normal;font-weight:normal;font-stretch:normal;font-family:'Cooper Black';-inkscape-font-specification:'Cooper Black, ';text-align:start;text-anchor:start;stroke-width:0.784946"
           id="path855-8" />
        <path
           d="m 283.3874,153.39172 -32.69844,-10.76158 q -2.15671,-0.7098 -2.77493,1.16862 -1.4883,4.52213 2.05366,10.16004 3.63442,5.59124 9.26969,7.4459 3.33941,1.09905 7.78669,1.1748 4.53974,0.0291 7.80166,-0.97927 2.91495,-0.89121 4.30637,-0.43327 1.80885,0.59532 2.81543,3.39402 1.00657,2.7987 0.22807,5.16412 -1.64858,5.00912 -9.44408,7.60967 -13.78655,4.63834 -28.25736,-0.12423 -14.60994,-4.80836 -21.69561,-16.54741 -3.4266,-5.75416 -4.61106,-12.69808 -1.51734,-9.21246 1.34479,-17.90885 3.84669,-11.68796 14.01114,-18.675 8.77831,-6.05532 19.54512,-6.90689 8.08082,-0.65607 16.35979,2.06867 13.21852,4.35042 19.99862,14.90941 3.42483,5.29094 4.58287,11.37798 1.3465,6.92013 -0.48526,12.48583 -1.4883,4.52212 -4.3284,6.82589 -2.8172,2.2342 -5.80876,1.24963 z m -26.60786,-23.17606 7.02669,2.31259 q 4.45255,1.46541 5.80348,-2.63929 1.23643,-3.75684 -0.14178,-6.83207 -1.37821,-3.07522 -4.85676,-4.22007 -3.89599,-1.28223 -7.12973,1.0462 -3.02591,2.1655 -3.98759,5.08749 -0.68691,2.08714 0.0123,3.24255 0.7688,1.17831 3.27336,2.0026 z"
           style="font-style:normal;font-variant:normal;font-weight:normal;font-stretch:normal;font-family:'Cooper Black';-inkscape-font-specification:'Cooper Black, ';text-align:start;text-anchor:start;stroke-width:0.784946"
           id="path857-7" />
        <path
           d="m 414.33747,208.93188 -4.579,-13.49037 q -1.62842,-4.59602 -2.22839,-5.56464 -0.52867,-0.95186 -1.74076,-1.23672 -2.56679,-0.60325 -6.38211,3.46577 l -16.73296,17.73592 q -4.81319,5.11354 -9.09116,4.10814 -2.63809,-0.62 -4.42946,-2.92195 -1.77461,-2.37324 -3.31924,-7.32576 l -13.02828,-40.6055 q -3.31991,-9.884 -5.6945,-13.22587 -1.15788,-1.47593 -4.68541,-3.43352 -1.45129,-0.86775 -2.18565,-2.54509 -0.64631,-1.73189 -0.22739,-3.51438 1.29026,-5.49006 10.29437,-5.7063 9.05865,-0.12819 19.1832,2.25126 22.74456,5.34539 20.75052,13.83004 -0.36865,1.56859 -3.33299,4.25761 -0.57861,0.54116 -0.74617,1.25415 -0.36865,1.5686 1.5246,8.55922 2.04866,7.93001 4.75805,8.56677 1.56859,0.36864 4.83061,-2.62661 3.26202,-2.99525 3.78148,-5.20554 0.51946,-2.21028 -0.24842,-3.74503 -0.75111,-1.60604 -4.07362,-5.3964 -2.02203,-2.28092 -1.46906,-4.6338 1.30702,-5.56137 13.11712,-4.59149 7.16741,0.55591 16.50766,2.75103 10.76623,2.53026 15.10763,5.50675 4.35816,2.90519 3.40302,6.96927 -0.3854,1.63989 -1.19039,2.50403 -0.80499,0.86414 -3.90372,2.84444 -0.98537,0.67127 -1.30375,2.02596 -0.45243,1.92509 1.36952,8.89896 1.57847,6.08904 3.93136,6.64201 2.56678,0.60324 8.11366,-5.3912 4.07522,-4.5346 4.47738,-6.24579 0.31838,-1.35469 -1.29294,-4.74289 -1.1707,-2.38179 -0.61773,-4.73468 0.87135,-3.70758 4.55756,-4.34601 5.19172,-0.96174 14.17547,1.1496 6.06046,1.42432 10.5484,3.45716 2.57533,1.20715 3.8676,3.3918 1.30903,2.11335 0.77282,4.39493 -0.53622,2.28159 -2.90125,3.381 -0.44028,0.27271 -5.46016,0.82341 -2.87268,0.3782 -5.01954,1.82983 -2.14687,1.45163 -5.69375,5.65897 l -25.93514,30.31983 q -11.39537,13.27228 -17.38454,11.86471 -2.56678,-0.60324 -4.94991,-4.54901 -2.29508,-4.00032 -5.22464,-12.66402 z"
           style="font-style:normal;font-variant:normal;font-weight:normal;font-stretch:normal;font-family:'Cooper Black';-inkscape-font-specification:'Cooper Black, ';text-align:start;text-anchor:start;stroke-width:0.784946"
           id="path859-8" />
        <path
           d="m 529.68655,174.80913 -6.65683,39.13514 q -2.13706,12.56368 6.16652,13.97611 2.09395,0.35618 4.3122,-0.45521 2.23054,-0.88359 3.31956,-2.48141 2.17805,-3.19564 4.21686,-15.18168 2.01424,-11.84163 1.9569,-16.30903 0.0182,-1.85426 -0.56872,-2.77133 -0.57466,-0.98929 -2.41218,-2.41626 -3.74723,-2.86622 -3.18226,-6.18765 0.76149,-4.47672 8.13235,-5.00601 13.99511,-1.03698 27.06423,1.18606 7.29271,1.24048 5.97854,8.96642 -0.1351,0.79425 -0.62489,3.23694 -0.73395,3.44128 -1.65361,8.41115 l -5.41635,31.84243 q -0.41759,2.45497 3.42641,5.18907 3.24328,2.33474 2.67831,5.65617 -1.10538,6.49846 -17.08687,7.42045 -9.38181,0.5587 -17.82981,-0.8783 -3.46584,-0.58953 -4.63043,-1.60486 -1.09238,-1.00305 -0.91597,-3.35046 0.40045,-4.53812 -1.98231,-4.94343 -0.86646,-0.14738 -1.66221,0.16303 -0.78346,0.2382 -4.89578,2.139 -8.14017,3.74167 -16.51596,2.31696 -13.86337,-2.35814 -18.20427,-11.34318 -3.69552,-7.53796 -0.99348,-23.42307 1.00712,-5.92082 1.79168,-10.09643 0.41758,-2.45497 0.56497,-3.32143 1.05625,-6.20964 0.39225,-9.29435 -0.57952,-3.14464 -3.25744,-5.30892 -2.57036,-1.92309 -3.21723,-2.92466 -0.57467,-0.98928 -0.31675,-2.50558 0.93343,-5.48759 9.54407,-5.88029 14.68031,-0.69755 28.8325,1.70972 4.2601,0.72463 3.646,4.33489 z"
           style="font-style:normal;font-variant:normal;font-weight:normal;font-stretch:normal;font-family:'Cooper Black';-inkscape-font-specification:'Cooper Black, ';text-align:start;text-anchor:start;stroke-width:0.784946"
           id="path861-7" />
        <path
           d="m 670.29434,186.64067 q 1.81693,0.22703 2.93445,2.5072 1.12659,2.20749 0.78152,4.96922 -0.37232,2.97976 -2.73413,6.52286 -2.28913,3.55219 -5.18701,5.47827 -1.85319,1.24468 -1.96217,2.1168 -0.0272,0.21803 -0.0726,1.76241 0.0273,1.55346 -0.12705,2.78897 -1.08063,8.64857 -7.63034,13.80894 -5.88658,4.57892 -14.535,6.45078 -8.57574,1.88094 -18.45982,0.64594 -2.39835,-0.29967 -4.68769,-0.88097 -1.86236,-0.45413 -2.87984,-0.58127 -3.85188,-0.48128 -4.33317,3.3706 -0.30875,2.47102 1.98065,4.23331 2.37116,1.6987 6.65911,2.23447 2.90708,0.36324 8.67578,0.2721 12.1279,-0.1823 17.79671,0.52601 8.57589,1.07155 12.94575,4.49621 3.50678,2.65252 5.19672,6.84951 1.76262,4.20607 1.1996,8.71205 -0.91717,7.34038 -7.15796,13.57271 -7.41264,7.34071 -20.33079,9.71244 -10.12012,1.83559 -22.91128,0.23735 -16.13431,-2.01596 -25.54624,-8.21116 -4.36075,-2.90685 -6.65027,-7.03113 -2.28952,-4.12428 -1.78099,-8.1942 0.35416,-2.8344 2.18004,-5.04205 1.89857,-2.19856 4.42405,-2.91637 2.28928,-0.59969 2.41641,-1.61717 0.0999,-0.79945 -1.52634,-2.55269 -5.20574,-5.59584 -4.55191,-10.82859 0.43588,-3.48849 3.66073,-6.84995 3.29754,-3.35238 7.69439,-4.86972 1.85322,-0.65418 1.96219,-1.52631 0.12714,-1.01748 -1.79891,-3.32486 -6.62305,-7.83966 -5.46977,-17.06964 0.60842,-4.86937 3.77873,-8.97575 3.24298,-4.09731 8.35747,-6.63217 12.6545,-6.16906 26.89921,-4.3892 5.66881,0.70831 12.46419,3.03362 6.45015,2.13455 8.92117,2.4433 7.9218,0.98982 16.55188,-4.27967 1.90771,-1.09025 2.85251,-0.9722 z m -41.34339,10.11322 q -3.63385,-0.45404 -6.23192,2.02618 -2.52538,2.4893 -3.09748,7.06795 -0.98074,7.84912 0.82735,12.8728 1.80808,5.02368 5.73264,5.51405 3.85188,0.48129 6.46811,-2.14428 2.62531,-2.69826 3.24281,-7.6403 0.97165,-7.77644 -0.89091,-12.36406 -1.78082,-4.65121 -6.0506,-5.33234 z m -24.10723,64.15649 q -1.81692,-0.22702 -2.08027,1.88061 -0.53577,4.28795 3.78865,7.4855 4.31533,3.27023 11.72839,4.19648 7.12236,0.88993 11.3557,-0.50022 4.30602,-1.38108 4.73282,-4.7969 0.22702,-1.81692 -1.13574,-3.31581 -1.37184,-1.42621 -3.62483,-1.70772 -1.16283,-0.14529 -3.37947,-0.12701 -4.15164,0.14556 -9.16636,-0.48102 -3.70653,-0.46313 -7.07695,-1.25332 -2.51645,-0.53586 -4.06994,-1.09902 -0.70861,-0.23617 -1.072,-0.28157 z"
           style="font-style:normal;font-variant:normal;font-weight:normal;font-stretch:normal;font-family:'Cooper Black';-inkscape-font-specification:'Cooper Black, ';text-align:start;text-anchor:start;stroke-width:0.784946"
           id="path863-7" />
        <path
           d="m 721.14765,210.20795 -2.16786,23.41058 q -1.43849,15.53413 -1.23728,18.1272 0.27414,2.59983 3.28182,4.27591 2.59036,1.41676 3.37098,2.51882 0.85354,1.10882 0.67795,3.005 -0.22286,2.4067 -2.15553,4.21373 -1.85974,1.81378 -4.7783,2.35263 -5.39955,1.11822 -17.87061,-0.0366 -14.07552,-1.30342 -19.56822,-3.94516 -2.53769,-1.19122 -4.03274,-3.31566 -1.4883,-2.19738 -1.2857,-4.38528 0.16209,-1.75032 1.12504,-2.61738 1.03589,-0.86029 4.22052,-1.88939 2.95909,-0.97643 4.12872,-6.45834 2.04483,-9.37286 3.66566,-26.8761 1.64785,-17.79496 1.09957,-22.99462 -0.54828,-5.19966 -4.40275,-8.05748 -2.90099,-2.03397 -3.92605,-3.67356 -0.94537,-1.70577 -0.73601,-3.9666 0.33092,-3.57358 4.00176,-5.88165 3.67759,-2.38101 11.39876,-3.94623 5.174,-1.06555 13.32464,-1.70834 8.15063,-0.64279 11.79714,-0.30512 5.76148,0.53352 5.09964,7.68068 -0.21611,2.33376 -1.72206,10.6532 -2.15696,12.9667 -3.30909,23.81979 z"
           style="font-style:normal;font-variant:normal;font-weight:normal;font-stretch:normal;font-family:'Cooper Black';-inkscape-font-specification:'Cooper Black, ';text-align:start;text-anchor:start;stroke-width:0.784946"
           id="path865-4" />
        <path
           d="m 803.04588,237.00869 -11.25982,25.95284 q -4.1809,9.65229 -8.21319,15.64475 -3.96362,6.07 -8.83546,10.17712 -10.05386,8.48894 -23.43259,7.67749 -10.81996,-0.65625 -17.20002,-6.76661 -4.92461,-4.70129 -4.51223,-11.50032 0.34142,-5.6293 4.15428,-9.21364 3.89041,-3.65301 9.15417,-3.33375 5.26376,0.31926 8.26767,4.02354 1.43771,1.70149 1.87409,2.97536 0.43637,1.27387 1.2027,5.5762 0.60909,3.26552 3.46029,3.43846 2.26635,0.13745 3.92133,-1.74334 1.65499,-1.8808 1.83235,-4.80511 0.20841,-3.43607 -3.10544,-11.70851 l -15.34428,-38.57295 q -2.42337,-6.01712 -3.72373,-7.56353 -1.30037,-1.5464 -5.92379,-3.95475 -1.42668,-0.67354 -2.42132,-2.42154 -0.91709,-1.81666 -0.81954,-3.42503 0.39464,-6.5066 13.47662,-8.06121 8.71985,-1.01204 19.75913,-0.34248 7.74943,0.47002 12.11146,2.34887 5.86625,2.48373 5.55586,7.60128 -0.11085,1.82769 -1.94309,4.21137 -1.75027,2.2419 -1.86112,4.0696 -0.10642,1.75459 0.50937,3.69973 0.6889,1.94958 2.89965,6.63303 2.46771,5.28605 4.58783,5.41464 2.26635,0.13745 4.94939,-4.1758 2.68747,-4.38636 2.94022,-8.5535 0.20397,-3.36296 -1.49514,-5.59395 -2.57856,-3.45835 -2.43666,-5.7978 0.22614,-3.7285 5.33049,-5.62021 5.10879,-1.96482 13.44309,-1.45933 15.49886,0.94004 15.04658,8.39704 -0.16406,2.70499 -1.87442,4.28892 -1.63282,1.51525 -5.88865,2.72466 -3.58899,1.10311 -5.82224,4.04948 -3.51383,4.70312 -8.36384,15.70898 z"
           style="font-style:normal;font-variant:normal;font-weight:normal;font-stretch:normal;font-family:'Cooper Black';-inkscape-font-specification:'Cooper Black, ';text-align:start;text-anchor:start;stroke-width:0.784946"
           id="path867-4" />
        <path
           d="m 956.42305,182.74572 -0.0634,66.87009 q -0.005,5.71289 0.43251,7.32463 0.51117,1.61182 2.70698,3.15198 2.63498,1.83356 3.51257,3.22599 0.95082,1.39251 0.94895,3.37004 -0.006,5.85938 -11.80046,8.92437 -10.62268,2.69989 -21.24279,2.68982 -2.34375,-0.002 -3.07548,-0.73534 -0.65855,-0.6598 -0.87578,-3.29673 -0.36267,-3.7357 -2.63318,-3.73785 -1.24511,-10e-4 -3.88391,2.19358 -7.47647,6.07202 -16.63174,6.06334 -11.35253,-0.0108 -20.42657,-8.44222 -5.34189,-5.05878 -8.63154,-11.6537 -4.3864,-8.5735 -4.37807,-17.36256 0.01,-10.32714 5.73178,-19.91644 5.28184,-8.85731 14.36838,-13.60943 7.62093,-3.94786 15.01839,-3.94085 8.49609,0.008 15.23076,3.82304 1.09807,0.58698 1.75725,0.5876 2.34375,0.002 2.34972,-6.2966 0.003,-2.70996 -1.31447,-4.10281 -1.24372,-1.46602 -4.53865,-2.49454 -4.61287,-1.46922 -4.60939,-5.13132 0.005,-5.34668 10.62802,-8.33954 18.75493,-5.18242 25.12699,-5.17638 6.29883,0.006 6.29313,6.01183 z m -39.80541,36.8031 q -4.76074,-0.005 -7.54874,5.04656 -3.74174,6.73473 -3.75215,17.72106 -0.009,9.96093 3.57463,15.01804 2.56,3.66454 6.95453,3.66871 4.76074,0.005 6.88997,-5.48664 2.20254,-5.56432 2.21421,-17.869 0.0107,-11.27929 -2.54924,-15.01707 -1.97476,-2.93156 -5.78321,-3.08166 z"
           style="font-style:normal;font-variant:normal;font-weight:normal;font-stretch:normal;font-family:'Cooper Black';-inkscape-font-specification:'Cooper Black, ';text-align:start;text-anchor:start;stroke-width:0.784946"
           id="path869-9" />
        <path
           d="m 1014.737,201.45148 q 13.3878,-0.64631 23.819,5.81621 7.4827,4.62503 12.257,12.38724 4.9384,8.12092 5.3763,17.19239 0.7664,15.87506 -13.255,27.69775 -13.3877,11.2788 -31.3112,12.14409 -17.48447,0.8441 -28.79203,-8.58255 -11.0008,-9.14814 -11.74954,-24.65742 -0.8335,-17.26505 11.51236,-28.86019 12.90286,-12.20866 32.14311,-13.13752 z m -5.0367,17.18181 q -3.2189,0.1554 -5.0776,2.66494 -1.789,2.43285 -1.5983,6.38332 0.2119,4.38942 2.1886,11.92005 2.0464,7.45394 4.5968,13.19701 2.5575,5.88939 7.6785,5.64216 6.511,-0.31432 6.1119,-8.58106 -0.2967,-6.14519 -2.3572,-13.89176 -1.9874,-7.7501 -4.565,-12.5386 -2.6544,-4.85812 -6.9777,-4.79606 z"
           style="font-style:normal;font-variant:normal;font-weight:normal;font-stretch:normal;font-family:'Cooper Black';-inkscape-font-specification:'Cooper Black, ';text-align:start;text-anchor:start;stroke-width:0.784946"
           id="path871-1" />
        <path
           d="m 1102.3539,195.04474 q 12.9773,-1.24739 23.5162,4.28819 10.0005,5.29301 10.8835,14.47919 0.6097,6.34284 -3.3862,10.70024 -3.7254,4.11065 -9.485,4.66427 -6.0512,0.58165 -9.5337,-3.49839 -1.0809,-1.29411 -3.4502,-6.8056 -2.5571,-5.93491 -8.098,-5.40231 -4.0098,0.38543 -6.4439,4.15122 -2.3611,3.75879 -1.8706,8.86222 0.841,8.74874 7.7626,14.92634 5.629,4.97741 13.3571,4.23458 3.6453,-0.35039 6.068,-1.1719 2.4158,-0.89443 6.2434,-3.17542 0.9716,-0.60845 2.211,-0.72758 2.4789,-0.23827 4.5987,1.91252 2.1198,2.1508 2.4211,5.28576 0.3154,3.28078 -2.0318,7.18538 -2.3541,3.83169 -6.4692,6.94969 -8.9172,6.74351 -21.8216,7.9839 -15.0186,1.44361 -26.431,-6.28899 -14.6257,-9.77828 -16.2725,-26.91123 -1.5838,-16.47679 9.9918,-28.47926 11.0344,-11.50897 28.2403,-13.16282 z"
           style="font-style:normal;font-variant:normal;font-weight:normal;font-stretch:normal;font-family:'Cooper Black';-inkscape-font-specification:'Cooper Black, ';text-align:start;text-anchor:start;stroke-width:0.784946"
           id="path873-5" />
        <path
           d="m 1184.6867,199.98207 3.1928,23.29294 q 2.1186,15.45606 2.9021,17.93611 0.8561,2.4701 4.1653,3.42111 2.844,0.793 3.854,1.68954 1.0826,0.88658 1.3412,2.77324 0.3282,2.3946 -1.1448,4.59253 -1.4004,2.18799 -4.1209,3.37411 -5.0058,2.31254 -17.4142,4.01339 -14.0048,1.91967 -19.9532,0.59114 -2.7416,-0.58525 -4.6791,-2.3157 -1.9475,-1.80301 -2.2459,-3.97992 -0.2387,-1.74153 0.5028,-2.80422 0.814,-1.07263 3.6826,-2.79653 2.6609,-1.62149 2.5581,-7.22585 -0.1321,-9.59242 -2.5192,-27.0077 -2.4269,-17.70553 -4.1391,-22.64574 -1.7121,-4.94021 -6.1139,-6.85037 -3.2864,-1.32378 -4.6563,-2.68847 -1.3072,-1.4472 -1.6156,-3.69668 -0.4874,-3.55562 2.5651,-6.63539 3.0424,-3.15234 10.2082,-6.4263 4.798,-2.21014 12.591,-4.68297 7.793,-2.47282 11.4212,-2.97014 5.7325,-0.78577 6.7073,6.32547 0.3183,2.32204 0.7365,10.76632 0.8371,13.1182 2.174,23.95008 z"
           style="font-style:normal;font-variant:normal;font-weight:normal;font-stretch:normal;font-family:'Cooper Black';-inkscape-font-specification:'Cooper Black, ';text-align:start;text-anchor:start;stroke-width:0.784946"
           id="path875-5" />
        <path
           d="m 1238.6048,181.11137 7.248,41.93191 q 0.8608,4.97986 2.1261,7.13966 1.3374,2.14733 4.4168,3.62192 2.5118,1.20106 3.4331,2.23106 0.981,0.94535 1.2804,2.67748 1.6093,9.31018 -21.9909,13.38952 -12.7023,2.19561 -20.4853,1.45973 -2.6508,-0.28509 -4.5504,-1.81494 -1.8275,-1.54232 -2.2267,-3.85182 -0.3369,-1.94865 0.2699,-3.16845 0.6068,-1.21981 3.4428,-4.16286 1.9504,-2.04668 2.24,-5.9618 0.2895,-3.91512 -0.9954,-11.34883 -0.4117,-2.38167 -1.8953,-8.81477 -1.4239,-6.51775 -1.7554,-7.57538 -0.9445,-2.8842 -4.8276,-3.84823 -4.8115,-1.17519 -5.4726,-5.0003 -0.786,-4.54683 4.6732,-7.79464 7.5469,-4.50061 16.4106,-8.26257 8.8638,-3.76197 13.9158,-4.63522 3.9695,-0.68613 4.7429,3.78853 z m -19.7541,-29.14125 q 6.279,-1.08533 10.3714,0.66011 4.08,1.67328 4.7661,5.64274 0.9606,5.55724 -4.0353,9.76555 -7.9192,6.64617 -20.405,8.80435 -5.2685,0.91068 -8.7212,-0.5737 -4.6351,-1.87464 -5.4335,-6.49365 -1.0728,-6.20678 7.193,-11.27764 8.3978,-5.16798 16.2645,-6.52776 z"
           style="font-style:normal;font-variant:normal;font-weight:normal;font-stretch:normal;font-family:'Cooper Black';-inkscape-font-specification:'Cooper Black, ';text-align:start;text-anchor:start;stroke-width:0.784946"
           id="path877-5" />
        <path
           d="m 1344.0836,180.97257 6.6965,24.91747 q 0.7902,2.82491 1.812,4.02029 1.0933,1.17919 5.6102,4.21116 1.3304,0.90017 1.7997,2.97169 1.0681,4.71451 -4.1543,7.85022 -5.2223,3.1357 -19.723,6.42091 -9.8576,2.23329 -14.3176,1.44137 -4.6191,-0.83099 -5.5253,-4.83118 -0.3237,-1.42864 -0.041,-2.16862 0.2668,-0.81142 2.0967,-4.00463 2.1776,-3.64748 -1.674,-20.64827 -2.2333,-9.85761 -5.5872,-14.05425 -2.715,-3.36513 -7.7152,-2.2323 -4.786,1.08428 -5.8759,4.56043 -1.0899,3.47616 0.7388,11.54796 l 3.2043,14.14352 q 0.9548,4.21449 1.8109,5.67271 0.9275,1.44203 4.9471,5.26255 1.0771,1.10776 1.4493,2.75069 0.9548,4.21449 -4.4495,7.54161 -5.4043,3.32712 -17.8334,6.14301 -19.8581,4.49894 -21.7192,-3.71573 -0.3884,-1.71437 -0.011,-2.70102 0.4325,-1.07426 2.3461,-3.23506 1.5498,-1.77797 1.6614,-3.60562 0.095,-1.89908 -1.0296,-8.85364 -1.3448,-8.25653 -3.3678,-17.18552 -1.1166,-4.9288 -2.2422,-6.25085 -1.0704,-1.40967 -5.1436,-2.8149 -3.5086,-1.23278 -4.1397,-4.01863 -0.6473,-2.85728 1.4482,-5.20949 2.0794,-2.42364 9.2343,-6.97346 6.3072,-3.98228 12.2925,-7.06553 5.969,-3.15467 8.3263,-3.68872 2.1429,-0.4855 3.9276,0.76234 1.8561,1.23165 2.3416,3.37461 0.048,0.2143 0.3331,1.80198 0.058,0.58764 0.1552,1.01623 0.7768,3.42874 3.634,2.78141 1.7144,-0.3884 3.0281,-3.53976 4.1364,-10.24932 15.8513,-12.90338 9.0004,-2.03909 16.4973,1.21892 5.2609,2.33776 8.0824,6.50482 2.8053,4.09563 5.2245,12.78466 z"
           style="font-style:normal;font-variant:normal;font-weight:normal;font-stretch:normal;font-family:'Cooper Black';-inkscape-font-specification:'Cooper Black, ';text-align:start;text-anchor:start;stroke-width:0.784946"
           id="path879-8" />
        <path
           d="m 1422.9693,125.63677 q 1.7546,-0.52356 3.6955,1.11387 1.9199,1.56725 2.7157,4.23426 0.8586,2.87755 0.1228,7.07164 -0.6655,4.17314 -2.543,7.10278 -1.1953,1.88537 -0.944,2.72758 0.063,0.21055 0.643,1.64253 0.6503,1.41105 1.0063,2.60418 2.4922,8.35192 -1.4262,15.71225 -3.5454,6.56113 -10.7087,11.75595 -7.0931,5.17388 -16.6382,8.02206 -2.3161,0.69111 -4.6457,1.08053 -1.8876,0.33395 -2.8702,0.62715 -3.7198,1.10995 -2.6098,4.82972 0.712,2.38626 3.5171,3.0779 2.8544,0.60051 6.9953,-0.6351 2.8073,-0.8377 8.0513,-3.24324 11.0286,-5.04882 16.5029,-6.68234 8.2818,-2.47122 13.6605,-1.0953 4.2779,1.01652 7.5143,4.17819 3.3066,3.14073 4.605,7.49215 2.1152,7.08861 -1.0889,15.30586 -3.8306,9.70358 -14.7012,17.07471 -8.5251,5.75404 -20.8775,9.43992 -15.5809,4.64925 -26.6905,2.76679 -5.1619,-0.90557 -8.9179,-3.75933 -3.756,-2.85377 -4.9288,-6.78409 -0.8168,-2.73718 -0.034,-5.49306 0.8529,-2.77681 2.8758,-4.45049 1.8542,-1.47049 1.561,-2.45307 -0.2303,-0.77203 -2.4247,-1.72233 -7.0179,-3.02694 -8.5258,-8.08021 -1.0052,-3.36884 0.5937,-7.74406 1.6691,-4.39615 5.0832,-7.55504 1.4331,-1.34483 1.1818,-2.18704 -0.2932,-0.98258 -2.9851,-2.31946 -9.2185,-4.51042 -11.8782,-13.42382 -1.4032,-4.70234 -0.154,-9.73751 1.3193,-5.05612 4.9807,-9.4353 9.1007,-10.7411 22.8569,-14.84584 5.4743,-1.63352 12.6309,-2.24032 6.7637,-0.64245 9.15,-1.3545 7.65,-2.28274 13.4289,-10.58038 1.3074,-1.76593 2.2198,-2.03819 z m -33.7749,25.89994 q -3.5092,1.04713 -4.8891,4.36335 -1.3097,3.29528 0.01,7.71689 2.2618,7.57989 5.9391,11.45077 3.6773,3.87087 7.4673,2.73997 3.7198,-1.10996 5.0578,-4.56654 1.317,-3.52678 -0.1071,-8.29931 -2.2408,-7.50971 -5.7925,-10.95948 -3.5024,-3.54089 -7.6852,-2.44565 z m 3.7576,68.43314 q -1.7547,0.52356 -1.1473,2.55891 1.2356,4.14087 6.4813,5.32718 5.2667,1.25649 12.4255,-0.87965 6.878,-2.05237 10.1937,-5.029 3.3858,-2.99757 2.4015,-6.29623 -0.5236,-1.75461 -2.3744,-2.57813 -1.8299,-0.75334 -4.0056,-0.10412 -1.123,0.33508 -3.1447,1.24409 -3.7419,1.80444 -8.5846,3.24948 -3.5794,1.06807 -6.9828,1.70145 -2.5192,0.52243 -4.168,0.63225 -0.7437,0.0691 -1.0946,0.17377 z"
           style="font-style:normal;font-variant:normal;font-weight:normal;font-stretch:normal;font-family:'Cooper Black';-inkscape-font-specification:'Cooper Black, ';text-align:start;text-anchor:start;stroke-width:0.784946"
           id="path881-2" />
      </g>
      <g
         id="g768"
         transform="translate(1732.3044,1406.928)">
        <path
           id="path615"
           style="fill:#000000;stroke-width:0.764574"
           d="m -2688.2094,509.30691 c -1.7344,5.1009 -2.5783,10.0815 -1.7377,14.729 0.5669,3.1388 0.7732,9.2045 0.5475,16.2066 -0.5775,17.9234 -0.4036,44.68 0.5622,86.0535 0.9329,39.9539 1.4204,45.7178 4.682,55.3556 l 1.4959,4.4194 -5.0647,1.5308 c -26.3795,7.9742 -51.5064,13.9497 -100.5047,23.905 -35.9524,7.3045 -51.322,10.8393 -99.2249,22.8196 -84.2162,21.0623 -136.2282,29.7006 -209.0533,34.7178 -54.7477,3.7718 -119.6206,3.7721 -179.513,0 -2.3542,-0.1483 -4.8873,-0.4697 -7.2546,-0.6303 v 27.0174 c 10.9603,0.6804 19.5079,1.4132 29.978,1.9673 24.9957,1.3215 113.7748,1.3237 136.3385,0 50.5644,-2.9612 88.2985,-6.825 130.6439,-13.3782 34.1596,-5.2866 48.729,-8.4908 114.0107,-25.0687 25.0667,-6.3656 53.9511,-13.0798 74.6081,-17.3451 18.5383,-3.8278 41.3742,-8.7064 50.7477,-10.8406 70.3226,-16.0119 123.0495,-34.8755 151.322,-54.1387 9.4962,-6.4701 20.7246,-17.2204 25.633,-24.5399 2.5264,-3.7677 3.783,-5.0708 4.1839,-4.3409 0.8569,1.5602 3.4782,21.0476 4.4843,33.3418 1.2581,15.3731 1.1311,52.5803 -0.3095,90.2973 -0.6811,17.8279 -1.5796,42.1379 -1.9958,54.0232 -0.7939,22.6827 -1.9176,32.8573 -5.0116,45.3808 -4.5799,18.5389 -11.8554,32.17599 -24.1168,45.20059 -19.4125,20.6202 -50.1848,36.1322 -102.0502,51.4464 -26.5731,7.8463 -45.1314,12.3133 -102.3413,24.63 -20.7376,4.4645 -50.2211,11.0521 -65.5188,14.6389 -117.9736,27.6611 -215.8039,42.5012 -319.4293,48.4563 -19.0274,1.0942 -73.1375,1.0482 -101.1768,0.2148 v 31.2335 c 83.9477,2.7447 167.5487,-3.8799 268.5718,-20.8039 55.5675,-9.3089 111.1231,-20.7676 215.1123,-44.3717 28.7447,-6.5247 61.8082,-13.9602 73.4729,-16.5231 55.4687,-12.1872 86.558,-22.21 110.9656,-35.773 42.1209,-23.4063 65.103,-53.3373 74.5092,-97.03509 4.0478,-18.8048 5.502,-34.4572 6.4728,-69.6966 0.3603,-13.0769 0.818,-23.9427 1.0162,-24.145 0.011,-0.013 0.299,0.072 0.3241,0.064 l -0.4449,-12.9211 v -63.1506 c -1.0291,-17.5389 -2.7304,-31.7075 -6.5424,-44.4756 -3.7211,-12.4636 -10.4906,-25.9828 -16.0125,-31.9771 -1.716,-1.8629 -1.8874,-2.7022 -2.0343,-10.0325 -0.069,-3.4433 -0.4784,-6.6848 -1.139,-9.8271 l -5.3247,-13.429 c -1.7633,-3.1032 -3.9511,-6.1837 -6.5405,-9.2244 l -58.0389,-36.5951 c -19.1395,-7.6226 -30.2839,-13.6979 -34.4971,-19.3261 -0.7814,-1.0439 -1.0814,-2.1907 -1.4337,-3.3272 z m 16.4685,44.3462 c 0.095,-0.097 2.2136,1.2142 4.7095,2.9117 6.1274,4.1674 21.7009,11.7996 35.9729,17.6314 30.2096,12.3441 41.9979,20.7432 45.9155,32.7137 5.8243,17.7961 -13.5492,41.4852 -48.988,59.8949 -7.6295,3.9633 -23.4539,10.813 -24.9793,10.813 -0.2699,0 -0.225,-1.6504 0.1007,-3.6666 1.4356,-8.887 0.6019,-21.736 -2.818,-43.4112 -1.0381,-6.5794 -3.7329,-26.5315 -5.9875,-44.3371 -2.2545,-17.8057 -4.0208,-32.4529 -3.9258,-32.5498 z" />
        <path
           id="path683"
           style="fill:#000000;stroke-width:0.764574"
           d="m -3866.6451,509.30691 c 1.7344,5.1009 2.5783,10.0815 1.7377,14.729 -0.5669,3.1388 -0.7732,9.2045 -0.5475,16.2066 0.5775,17.9234 0.4036,44.68 -0.5622,86.0535 -0.9329,39.9539 -1.4204,45.7178 -4.682,55.3556 l -1.4959,4.4194 5.0647,1.5308 c 26.3795,7.9742 51.5064,13.9497 100.5047,23.905 35.9524,7.3045 51.322,10.8393 99.2249,22.8196 84.2162,21.0623 136.2282,29.7006 209.0533,34.7178 54.7477,3.7718 119.6206,3.7721 179.513,0 2.3542,-0.1483 4.8873,-0.4697 7.2546,-0.6303 v 27.0174 c -10.9603,0.6804 -19.5079,1.4132 -29.978,1.9673 -24.9957,1.3215 -113.7748,1.3237 -136.3385,0 -50.5644,-2.9612 -88.2985,-6.825 -130.6439,-13.3782 -34.1596,-5.2866 -48.729,-8.4908 -114.0107,-25.0687 -25.0667,-6.3656 -53.9511,-13.0798 -74.6081,-17.3451 -18.5383,-3.8278 -41.3742,-8.7064 -50.7477,-10.8406 -70.3226,-16.0119 -123.0495,-34.8755 -151.322,-54.1387 -9.4962,-6.4701 -20.7246,-17.2204 -25.633,-24.5399 -2.5264,-3.7677 -3.783,-5.0708 -4.1839,-4.3409 -0.8569,1.5602 -3.4782,21.0476 -4.4843,33.3418 -1.2581,15.3731 -1.1311,52.5803 0.3095,90.2973 0.6811,17.8279 1.5796,42.1379 1.9958,54.0232 0.7939,22.6827 1.9176,32.8573 5.0116,45.3808 4.5799,18.5389 11.8554,32.17599 24.1168,45.20059 19.4125,20.6202 50.1848,36.1322 102.0502,51.4464 26.5731,7.8463 45.1314,12.3133 102.3413,24.63 20.7376,4.4645 50.2211,11.0521 65.5188,14.6389 117.9736,27.6611 215.8039,42.5012 319.4293,48.4563 19.0274,1.0942 73.1375,1.0482 101.1768,0.2148 v 31.2335 c -83.9477,2.7447 -167.5487,-3.8799 -268.5718,-20.8039 -55.5675,-9.3089 -111.1231,-20.7676 -215.1123,-44.3717 -28.7447,-6.5247 -61.8082,-13.9602 -73.4729,-16.5231 -55.4687,-12.1872 -86.558,-22.21 -110.9656,-35.773 -42.1209,-23.4063 -65.103,-53.3373 -74.5092,-97.03509 -4.0478,-18.8048 -5.502,-34.4572 -6.4728,-69.6966 -0.3603,-13.0769 -0.818,-23.9427 -1.0162,-24.145 -0.011,-0.013 -0.299,0.072 -0.3241,0.064 l 0.4449,-12.9211 v -63.1506 c 1.0291,-17.5389 2.7304,-31.7075 6.5424,-44.4756 3.7211,-12.4636 10.4906,-25.9828 16.0125,-31.9771 1.716,-1.8629 1.8874,-2.7022 2.0343,-10.0325 0.069,-3.4433 0.4784,-6.6848 1.139,-9.8271 l 5.3247,-13.429 c 1.7633,-3.1032 3.9511,-6.1837 6.5405,-9.2244 l 58.0389,-36.5951 c 19.1395,-7.6226 30.2839,-13.6979 34.4971,-19.3261 0.7814,-1.0439 1.0814,-2.1907 1.4337,-3.3272 z m -16.4685,44.3462 c -0.095,-0.097 -2.2136,1.2142 -4.7095,2.9117 -6.1274,4.1674 -21.7009,11.7996 -35.9729,17.6314 -30.2096,12.3441 -41.9979,20.7432 -45.9155,32.7137 -5.8243,17.7961 13.5492,41.4852 48.988,59.8949 7.6295,3.9633 23.4539,10.813 24.9793,10.813 0.2699,0 0.225,-1.6504 -0.1007,-3.6666 -1.4356,-8.887 -0.6019,-21.736 2.818,-43.4112 1.0381,-6.5794 3.7329,-26.5315 5.9875,-44.3371 2.2545,-17.8057 4.0208,-32.4529 3.9258,-32.5498 z" />
      </g>
    </g>
  </g>
</svg>
