<?xml version="1.0" encoding="UTF-8" standalone="no"?>
<!-- Created with Inkscape (http://www.inkscape.org/) -->

<svg
   width="141.11111mm"
   height="141mm"
   viewBox="0 0 500 499.60629"
   id="svg2"
   version="1.1"
   inkscape:version="1.2 (dc2aeda, 2022-05-15)"
   sodipodi:docname="favicon.svg"
   inkscape:export-filename="favicon.png"
   inkscape:export-xdpi="38.1"
   inkscape:export-ydpi="38.1"
   xmlns:inkscape="http://www.inkscape.org/namespaces/inkscape"
   xmlns:sodipodi="http://sodipodi.sourceforge.net/DTD/sodipodi-0.dtd"
   xmlns="http://www.w3.org/2000/svg"
   xmlns:svg="http://www.w3.org/2000/svg"
   xmlns:rdf="http://www.w3.org/1999/02/22-rdf-syntax-ns#"
   xmlns:cc="http://creativecommons.org/ns#"
   xmlns:dc="http://purl.org/dc/elements/1.1/">
  <defs
     id="defs4" />
  <sodipodi:namedview
     id="base"
     pagecolor="#ffffff"
     bordercolor="#666666"
     borderopacity="1.0"
     inkscape:pageopacity="0.0"
     inkscape:pageshadow="2"
     inkscape:zoom="1.1945685"
     inkscape:cx="205.9321"
     inkscape:cy="207.18779"
     inkscape:document-units="px"
     inkscape:current-layer="g4183"
     showgrid="false"
     inkscape:window-width="1309"
     inkscape:window-height="977"
     inkscape:window-x="0"
     inkscape:window-y="25"
     inkscape:window-maximized="0"
     fit-margin-top="0"
     fit-margin-left="0"
     fit-margin-right="0"
     fit-margin-bottom="0"
     inkscape:showpageshadow="2"
     inkscape:pagecheckerboard="0"
     inkscape:deskcolor="#d1d1d1" />
  <metadata
     id="metadata7">
    <rdf:RDF>
      <cc:Work
         rdf:about="">
        <dc:format>image/svg+xml</dc:format>
        <dc:type
           rdf:resource="http://purl.org/dc/dcmitype/StillImage" />
      </cc:Work>
    </rdf:RDF>
  </metadata>
  <g
     inkscape:label="Layer 1"
     inkscape:groupmode="layer"
     id="layer1"
     transform="translate(1622.8571,33295.75)">
    <g
       id="g4183"
       transform="matrix(0.19444451,0,0,0.19424844,-1307.3014,-26506.172)">
      <g
         id="g1658"
         transform="translate(-2.677162e-4,257.57227)">
        <ellipse
           ry="1017.3068"
           rx="1010.7151"
           cy="-33933.125"
           cx="-332.85712"
           id="path4383"
           style="color:#000000;display:inline;overflow:visible;visibility:visible;opacity:1;fill:#2700ff;fill-opacity:1;fill-rule:nonzero;stroke:#454545;stroke-width:5.26558;stroke-linecap:round;stroke-linejoin:miter;stroke-miterlimit:4;stroke-dasharray:none;stroke-dashoffset:0;stroke-opacity:1;marker:none;enable-background:accumulate" />
        <path
           sodipodi:nodetypes="sscccsscccss"
           inkscape:connector-curvature="0"
           id="path4155"
           d="m -427.1423,-33587.638 c -317.12444,0 -621.2602,25.453 -845.5005,70.759 -224.2402,45.306 -350.2162,106.754 -350.2143,170.826 0.533,50.773 85.9432,31.65 233.4838,72.752 -188.0189,201.496 222.226,290.818 296.7305,306.332 224.24025,45.306 528.37606,70.759 845.5005,70.759 317.124114,0 621.25943,-25.453 845.49926,-70.759 224.23983,-45.306 350.21549,-106.754 350.21363,-170.826 -0.53297,-50.773 -80.22893,-100.222 -227.76953,-141.323 31.37755,-21.749 47.45825,-44.281 47.76953,-66.935 0.002,-64.072 -125.9738,-125.52 -350.21363,-170.826 -224.23983,-45.306 -528.37515,-70.759 -845.49926,-70.759 z"
           style="color:#000000;display:inline;overflow:visible;visibility:visible;opacity:1;fill:#008000;fill-opacity:1;fill-rule:nonzero;stroke:none;stroke-width:1;stroke-linecap:round;stroke-linejoin:miter;stroke-miterlimit:4;stroke-dasharray:none;stroke-dashoffset:0;stroke-opacity:1;marker:none;enable-background:accumulate" />
        <g
           transform="matrix(3.0291662,0,0,3.0291662,3216.1788,-35647.314)"
           id="g4266">
          <path
             inkscape:connector-curvature="0"
             id="path4237"
             d="m -1196.9761,883.64003 c -56.2968,-6.90571 -115.1103,-4.07983 -168.3902,-26.41627 -51.9627,-41.2496 -106.9732,-92.82282 -112.4484,-163.14552 -7.5577,-76.65638 32.7201,-158.54009 102.0295,-193.79816 32.5209,-10.00246 58.542,25.63978 56.2355,55.39891 -11.0777,32.1523 22.0125,68.56587 55.2344,55.89572 30.8355,-10.86703 73.4114,-32.58436 63.9108,-72.35009 -11.806,-36.66011 -47.1735,-62.71904 -48.9878,-103.33796 -8.2074,-57.57642 34.508,-119.41433 94.3346,-123.80012 57.9709,-8.86469 119.8647,27.31192 137.868,83.68004 18.34303,29.21078 61.03297,13.42374 83.00403,36.92086 13.83642,22.46858 -9.4549,46.53309 -29.06095,55.71877 -20.89987,12.16594 -54.11528,20.95236 -53.89198,50.48084 5.5638,30.45794 38.53452,42.46226 54.12592,66.96462 29.89193,36.44242 59.99448,80.47455 51.83111,130.23143 -6.59106,58.43277 -51.20001,106.23082 -105.13803,126.14391 -57.0503,23.253 -120.0671,23.50196 -180.6565,21.41302 z"
             style="fill:#f7e43d;fill-opacity:1" />
          <path
             inkscape:connector-curvature="0"
             id="path4259"
             d="m -1021.9203,416.27702 c -1.3359,1.82689 -5.5761,1.62378 -7.4765,-0.35813 -2.4932,-2.60011 -7.0294,-16.5618 -8.4614,-26.04301 -0.884,-5.85229 -0.8564,-7.21112 0.1748,-8.62136 0.7664,-1.04816 1.0594,-1.08229 2.8663,-0.33383 5.2575,2.17772 11.7507,15.41381 13.2334,26.9757 1.6009,2.29208 1.6035,6.36753 -0.3366,8.38063 z"
             style="fill:#000000"
             sodipodi:nodetypes="csssscc" />
          <path
             sodipodi:nodetypes="csaccccc"
             inkscape:connector-curvature="0"
             id="path4261"
             d="m -1013.0065,398.11577 c -1.6964,24.95642 -13.9742,47.98605 -36.0426,58.15183 -14.1183,6.50359 -15.0423,20.07359 -11.4766,30.25253 5.8918,16.81918 27.3679,24.89622 46.0119,27.22667 15.00754,-1.10571 28.34644,-10.18956 42.3432,-15.41299 21.69074,-10.11908 41.17855,-26.31104 53.60641,-46.8245 11.47593,-16.151 -1.98754,-36.22992 -21.13954,-30.81346 -28.72985,-3.01704 -56.78785,-5.47636 -73.30277,-22.58008 z"
             style="fill:#dd4722" />
        </g>
        <path
           inkscape:connector-curvature="0"
           id="path4411"
           d="m -965.60199,-34351.102 c 0,0 151.83297,-207.644 625.19464,-219.657 473.36168,-12.012 663.15291,265.991 663.15291,265.991 v 0"
           style="fill:none;fill-rule:evenodd;stroke:none;stroke-width:1px;stroke-linecap:butt;stroke-linejoin:miter;stroke-opacity:1" />
        <path
           inkscape:connector-curvature="0"
           id="path4424"
           d="m -1291.4286,-33221.923 c 0,0 457.14289,165.714 902.85717,165.714 445.714287,0 1062.85714,-142.857 1062.85714,-142.857"
           style="fill:none;fill-rule:evenodd;stroke:none;stroke-width:1px;stroke-linecap:butt;stroke-linejoin:miter;stroke-opacity:1" />
      </g>
    </g>
  </g>
</svg>
