<?xml version="1.0" encoding="UTF-8" standalone="no"?>
<!-- Created with Inkscape (http://www.inkscape.org/) -->

<svg
   xmlns:dc="http://purl.org/dc/elements/1.1/"
   xmlns:cc="http://creativecommons.org/ns#"
   xmlns:rdf="http://www.w3.org/1999/02/22-rdf-syntax-ns#"
   xmlns:svg="http://www.w3.org/2000/svg"
   xmlns="http://www.w3.org/2000/svg"
   xmlns:xlink="http://www.w3.org/1999/xlink"
   xmlns:sodipodi="http://sodipodi.sourceforge.net/DTD/sodipodi-0.dtd"
   xmlns:inkscape="http://www.inkscape.org/namespaces/inkscape"
   width="141.11111mm"
   height="112.75931mm"
   viewBox="0 0 500 399.54085"
   id="svg2"
   version="1.1"
   inkscape:version="0.91 r13725"
   sodipodi:docname="lingpond-logo.svg">
  <defs
     id="defs4" />
  <sodipodi:namedview
     id="base"
     pagecolor="#ffffff"
     bordercolor="#666666"
     borderopacity="1.0"
     inkscape:pageopacity="0.0"
     inkscape:pageshadow="2"
     inkscape:zoom="0.24748737"
     inkscape:cx="1149.8487"
     inkscape:cy="930.78452"
     inkscape:document-units="px"
     inkscape:current-layer="layer1"
     showgrid="false"
     inkscape:window-width="1680"
     inkscape:window-height="1005"
     inkscape:window-x="0"
     inkscape:window-y="1"
     inkscape:window-maximized="1"
     fit-margin-top="0"
     fit-margin-left="0"
     fit-margin-right="0"
     fit-margin-bottom="0" />
  <metadata
     id="metadata7">
    <rdf:RDF>
      <cc:Work
         rdf:about="">
        <dc:format>image/svg+xml</dc:format>
        <dc:type
           rdf:resource="http://purl.org/dc/dcmitype/StillImage" />
        <dc:title></dc:title>
      </cc:Work>
    </rdf:RDF>
  </metadata>
  <g
     inkscape:label="Layer 1"
     inkscape:groupmode="layer"
     id="layer1"
     transform="translate(1622.8571,33295.75)">
    <g
       id="g4183"
       transform="matrix(0.19444451,0,0,0.19424844,-1307.3014,-26506.172)">
      <ellipse
         ry="879.99994"
         rx="1115.7142"
         cy="-34070.492"
         cx="-332.85712"
         id="path4383"
         style="color:#000000;display:inline;overflow:visible;visibility:visible;opacity:1;fill:#8cbbbf;fill-opacity:1;fill-rule:nonzero;stroke:#454545;stroke-width:5.14545012;stroke-linecap:round;stroke-linejoin:miter;stroke-miterlimit:4;stroke-dasharray:none;stroke-dashoffset:0;stroke-opacity:1;marker:none;enable-background:accumulate" />
      <path
         sodipodi:nodetypes="csccccccccsccc"
         inkscape:connector-curvature="0"
         id="path4395"
         d="m -770.82143,-33862.704 c 0,0 133.0553,344.088 130.76128,362.44 -2.29411,18.352 254.64027,-6.882 254.64027,-6.882 l 233.99381,-376.203 c 0,0 -128.76249,176.369 -213.34729,252.332 59.94078,-208.485 183.52452,-323.444 183.52452,-323.444 0,0 -168.42995,104.345 -247.75811,272.977 -10.50653,-219.041 -22.94055,-222.51 22.94054,-325.737 -101.78214,120.102 -75.07068,144.127 -110.11469,298.21 l -183.5246,-268.389 c 0,0 100.93851,266.095 100.93851,240.862 0,-25.234 -181.23049,-169.751 -181.23049,-169.751 l 185.81861,247.745 z"
         style="fill:#008000;fill-opacity:1;fill-rule:evenodd;stroke:none;stroke-width:1px;stroke-linecap:butt;stroke-linejoin:miter;stroke-opacity:1" />
      <path
         sodipodi:nodetypes="sscccsscccss"
         inkscape:connector-curvature="0"
         id="path4155"
         d="m -427.1423,-33587.638 c -317.12444,0 -621.2602,25.453 -845.5005,70.759 -224.2402,45.306 -350.2162,106.754 -350.2143,170.826 0.533,50.773 85.9432,31.65 233.4838,72.752 -188.0189,201.496 222.226,290.818 296.7305,306.332 224.24025,45.306 528.37606,70.759 845.5005,70.759 317.124114,0 621.25943,-25.453 845.49926,-70.759 224.23983,-45.306 350.21549,-106.754 350.21363,-170.826 -0.53297,-50.773 -80.22893,-100.222 -227.76953,-141.323 31.37755,-21.749 47.45825,-44.281 47.76953,-66.935 0.002,-64.072 -125.9738,-125.52 -350.21363,-170.826 -224.23983,-45.306 -528.37515,-70.759 -845.49926,-70.759 z"
         style="color:#000000;display:inline;overflow:visible;visibility:visible;opacity:1;fill:#1035b3;fill-opacity:1;fill-rule:nonzero;stroke:none;stroke-width:1;stroke-linecap:round;stroke-linejoin:miter;stroke-miterlimit:4;stroke-dasharray:none;stroke-dashoffset:0;stroke-opacity:1;marker:none;enable-background:accumulate" />
      <path
         style="fill:#008000;fill-opacity:1;fill-rule:evenodd;stroke:none;stroke-width:1px;stroke-linecap:butt;stroke-linejoin:miter;stroke-opacity:1"
         d="m -1182.25,-33896.989 c 0,0 133.0553,344.088 130.7613,362.44 -2.2941,18.352 254.64024,-6.882 254.64024,-6.882 l 233.99381,-376.203 c 0,0 -128.76249,176.369 -213.34729,252.332 59.94078,-208.485 183.52452,-323.444 183.52452,-323.444 0,0 -168.42995,104.345 -247.75811,272.977 -10.50653,-219.041 -22.94055,-222.51 22.94054,-325.737 -101.78214,120.102 -75.07068,144.127 -110.11468,298.21 l -183.52463,-268.389 c 0,0 100.9385,266.095 100.9385,240.862 0,-25.234 -181.2305,-169.751 -181.2305,-169.751 l 185.8187,247.745 z"
         id="path4397"
         inkscape:connector-curvature="0"
         sodipodi:nodetypes="csccccccccsccc" />
      <path
         inkscape:connector-curvature="0"
         style="fill:#008000;fill-rule:evenodd;stroke:none;stroke-width:1px;stroke-linecap:butt;stroke-linejoin:miter;stroke-opacity:1"
         d="m -1025.6954,-33813.366 c -31.0562,14.604 -54.1054,40.388 -71.2179,70.766 -16.6756,-27.494 -38.5832,-50.628 -67.3634,-64.162 20.0448,29.895 26.2289,98.517 27.3315,160.826 -34.5134,-60.493 -86.442,-126.276 -158.1494,-154.222 87.0899,74.105 133.1122,192.083 150.1701,244.349 -1.3681,20.235 -1.257,33.058 -1.257,33.058 l 6.0307,-0.413 c 0,0.05 -0.03,0.413 -0.03,0.413 l 34.6008,2.372 c -0.8426,2.665 -1.3046,4.234 -1.3046,4.234 l 22.6385,-2.773 40.4551,2.773 c 0,0 0.1112,-12.823 -1.2569,-33.058 17.0579,-52.266 63.08024,-170.244 150.17014,-244.349 -71.8217,27.99 -123.80304,93.939 -158.31574,154.512 0.4361,-65.603 5.9925,-142.253 27.4977,-174.326 z"
         id="path4393" />
      <path
         inkscape:connector-curvature="0"
         id="path4385"
         d="m 102.36742,-33861.445 c -41.055465,8.896 -77.417292,35.331 -108.8424161,69.866 -8.1147479,-42.116 -23.8952539,-80.212 -51.2712519,-107.89 10.997903,46.44 -9.025053,139.594 -32.334875,222.654 -15.380107,-91.932 -48.469327,-196.761 -118.954227,-258.058 69.77214,127.746 75.57191,299.848 74.35596,374.967 -9.53189,26.391 -14.46058,43.446 -14.46058,43.446 l 7.01725,1.488 c -0.0171,0.06 -0.19643,0.538 -0.19643,0.538 l 38.39196,14.83 c -2.0085,3.252 -3.15202,5.178 -3.15202,5.178 l 26.823431,3.965 44.888035,17.338 c 0,0 5.181379,-16.98 11.60338,-44.295 39.991764,-63.601 138.808534,-204.627 267.006564,-273.563 -92.66561,12.895 -177.744478,82.862 -240.8500407,151.594 26.3571897,-86.912 62.8892297,-186.756 99.9753507,-222.058 z"
         style="fill:#008000;fill-rule:evenodd;stroke:none;stroke-width:1px;stroke-linecap:butt;stroke-linejoin:miter;stroke-opacity:1" />
      <path
         style="fill:#008000;fill-opacity:1;fill-rule:evenodd;stroke:none;stroke-width:1px;stroke-linecap:butt;stroke-linejoin:miter;stroke-opacity:1"
         d="m 130.3976,-33862.704 c 0,0 -133.055299,344.088 -130.761279,362.44 2.29411,18.352 -254.640271,-6.882 -254.640271,-6.882 l -233.99381,-376.203 c 0,0 128.76249,176.369 213.34729,252.332 -59.94078,-208.485 -183.52452,-323.444 -183.52452,-323.444 0,0 168.42995,104.345 247.75811,272.977 10.50653,-219.041 22.94055,-222.51 -22.94054,-325.737 101.78214,120.102 75.07068,144.127 110.11469,298.21 L 59.281871,-33977.4 c 0,0 -100.93851,266.095 -100.93851,240.862 0,-25.234 181.230489,-169.751 181.230489,-169.751 l -185.818609,247.745 z"
         id="path4399"
         inkscape:connector-curvature="0"
         sodipodi:nodetypes="csccccccccsccc" />
      <path
         sodipodi:nodetypes="csccccccccsccc"
         inkscape:connector-curvature="0"
         id="path4401"
         d="m 544.68331,-33839.846 c 0,0 -133.0553,344.088 -130.7613,362.44 2.2941,18.352 -254.64024,-6.882 -254.64024,-6.882 l -233.993807,-376.203 c 0,0 128.762491,176.369 213.347287,252.332 -59.940776,-208.485 -183.524516,-323.444 -183.524516,-323.444 0,0 168.429946,104.345 247.758106,272.977 10.50653,-219.041 22.94055,-222.51 -22.94054,-325.737 101.78214,120.102 75.07068,144.127 110.11468,298.21 l 183.52463,-268.389 c 0,0 -100.9385,266.095 -100.9385,240.862 0,-25.234 181.2305,-169.751 181.2305,-169.751 l -185.8187,247.745 z"
         style="fill:#008000;fill-opacity:1;fill-rule:evenodd;stroke:none;stroke-width:1px;stroke-linecap:butt;stroke-linejoin:miter;stroke-opacity:1" />
      <path
         id="path4403"
         d="m 439.55728,-33761.938 c 31.0562,14.604 54.1054,40.388 71.2179,70.766 16.6756,-27.494 38.5832,-50.628 67.3634,-64.162 -20.0448,29.895 -26.2289,98.517 -27.3315,160.826 34.5134,-60.493 86.442,-126.276 158.1494,-154.222 -87.0899,74.105 -133.1122,192.083 -150.1701,244.349 1.3681,20.235 1.257,33.058 1.257,33.058 l -6.0307,-0.413 c 0,0.05 0.03,0.413 0.03,0.413 l -34.6008,2.372 c 0.8426,2.665 1.3046,4.234 1.3046,4.234 l -22.6385,-2.773 -40.4551,2.773 c 0,0 -0.1112,-12.823 1.2569,-33.058 -17.0579,-52.266 -63.08024,-170.244 -150.17014,-244.349 71.8217,27.99 123.80304,93.939 158.31574,154.512 -0.4361,-65.603 -5.9925,-142.253 -27.4977,-174.326 z"
         style="fill:#008000;fill-rule:evenodd;stroke:none;stroke-width:1px;stroke-linecap:butt;stroke-linejoin:miter;stroke-opacity:1"
         inkscape:connector-curvature="0" />
      <path
         style="fill:#008000;fill-rule:evenodd;stroke:none;stroke-width:1px;stroke-linecap:butt;stroke-linejoin:miter;stroke-opacity:1"
         d="m -708.50552,-33895.731 c 41.0554,8.896 77.4173,35.331 108.8424,69.866 8.1147,-42.116 23.8952,-80.212 51.27125,-107.89 -10.99795,46.44 9.02505,139.594 32.33487,222.654 15.38011,-91.932 48.46933,-196.761 118.95423,-258.058 -69.77214,127.746 -75.57191,299.848 -74.35596,374.967 9.53189,26.391 14.46058,43.446 14.46058,43.446 l -7.01725,1.488 c 0.0171,0.06 0.19643,0.538 0.19643,0.538 l -38.39196,14.83 c 2.0085,3.252 3.15202,5.178 3.15202,5.178 l -26.82343,3.965 -44.88808,17.338 c 0,0 -5.1813,-16.98 -11.6033,-44.295 -39.9918,-63.601 -138.8086,-204.627 -267.0066,-273.563 92.6656,12.895 177.7445,82.862 240.85,151.594 -26.3571,-86.912 -62.8892,-186.756 -99.9753,-222.058 z"
         id="path4405"
         inkscape:connector-curvature="0" />
      <g
         transform="matrix(2.0792184,0,0,2.0792184,2122.512,-35107.609)"
         id="g4266">
        <path
           inkscape:connector-curvature="0"
           id="path4237"
           d="m -1196.9761,883.64003 c -56.2968,-6.90571 -115.1103,-4.07983 -168.3902,-26.41627 -51.9627,-41.2496 -106.9732,-92.82282 -112.4484,-163.14552 -7.5577,-76.65638 32.7201,-158.54009 102.0295,-193.79816 32.5209,-10.00246 58.542,25.63978 56.2355,55.39891 -11.0777,32.1523 22.0125,68.56587 55.2344,55.89572 30.8355,-10.86703 73.4114,-32.58436 63.9108,-72.35009 -11.806,-36.66011 -47.1735,-62.71904 -48.9878,-103.33796 -8.2074,-57.57642 34.508,-119.41433 94.3346,-123.80012 57.9709,-8.86469 119.8647,27.31192 137.868,83.68004 18.34303,29.21078 61.03297,13.42374 83.00403,36.92086 13.83642,22.46858 -9.4549,46.53309 -29.06095,55.71877 -20.89987,12.16594 -54.11528,20.95236 -53.89198,50.48084 5.5638,30.45794 38.53452,42.46226 54.12592,66.96462 29.89193,36.44242 59.99448,80.47455 51.83111,130.23143 -6.59106,58.43277 -51.20001,106.23082 -105.13803,126.14391 -57.0503,23.253 -120.0671,23.50196 -180.6565,21.41302 z"
           style="fill:#f7e43d;fill-opacity:1" />
        <path
           inkscape:connector-curvature="0"
           id="path4259"
           d="m -1021.9203,416.27702 c -1.3359,1.82689 -5.5761,1.62378 -7.4765,-0.35813 -2.4932,-2.60011 -7.0294,-16.5618 -8.4614,-26.04301 -0.884,-5.85229 -0.8564,-7.21112 0.1748,-8.62136 0.7664,-1.04816 1.0594,-1.08229 2.8663,-0.33383 5.2575,2.17772 11.7507,15.41381 13.2334,26.9757 1.6009,2.29208 1.6035,6.36753 -0.3366,8.38063 z"
           style="fill:#000000"
           sodipodi:nodetypes="csssscc" />
        <path
           sodipodi:nodetypes="csaccccc"
           inkscape:connector-curvature="0"
           id="path4261"
           d="m -1013.0065,398.11577 c -1.6964,24.95642 -13.9742,47.98605 -36.0426,58.15183 -14.1183,6.50359 -15.0423,20.07359 -11.4766,30.25253 5.8918,16.81918 27.3679,24.89622 46.0119,27.22667 15.00754,-1.10571 28.34644,-10.18956 42.3432,-15.41299 21.69074,-10.11908 41.17855,-26.31104 53.60641,-46.8245 11.47593,-16.151 -1.98754,-36.22992 -21.13954,-30.81346 -28.72985,-3.01704 -56.78785,-5.47636 -73.30277,-22.58008 z"
           style="fill:#dd4722" />
      </g>
      <text
         transform="translate(0,-51.428571)"
         y="-62.857143"
         x="-11.428572"
         sodipodi:linespacing="125%"
         id="text4407"
         style="font-style:normal;font-variant:normal;font-weight:normal;font-stretch:normal;font-size:161.36601257px;line-height:125%;font-family:'Fira Sans';-inkscape-font-specification:'Fira Sans';text-align:center;letter-spacing:0px;word-spacing:0px;writing-mode:lr-tb;text-anchor:middle;fill:#000000;fill-opacity:1;stroke:none;stroke-width:1px;stroke-linecap:butt;stroke-linejoin:miter;stroke-opacity:1"
         xml:space="preserve"><textPath
           style="font-size:250px"
           id="textPath4413"
           startOffset="50%"
           xlink:href="#path4411">lingpond</textPath></text>
      <path
         inkscape:connector-curvature="0"
         id="path4411"
         d="m -965.60199,-34351.102 c 0,0 151.83297,-207.644 625.19464,-219.657 473.36168,-12.012 663.15291,265.991 663.15291,265.991 l 0,0"
         style="fill:none;fill-rule:evenodd;stroke:none;stroke-width:1px;stroke-linecap:butt;stroke-linejoin:miter;stroke-opacity:1" />
      <text
         transform="translate(-22.857143,22.857143)"
         sodipodi:linespacing="125%"
         id="text4420"
         style="font-style:normal;font-variant:normal;font-weight:normal;font-stretch:normal;font-size:125.29254913px;line-height:125%;font-family:'Times New Roman';-inkscape-font-specification:'Times New Roman';text-align:center;letter-spacing:0px;word-spacing:0px;writing-mode:lr-tb;text-anchor:middle;fill:#000000;fill-opacity:1;stroke:none;stroke-width:1px;stroke-linecap:butt;stroke-linejoin:miter;stroke-opacity:1"
         xml:space="preserve"><textPath
           style="font-style:normal;font-variant:normal;font-weight:normal;font-stretch:normal;font-size:187.5px;font-family:'Fira Sans';-inkscape-font-specification:'Fira Sans';fill:#ffffff;fill-opacity:1"
           id="textPath4426"
           startOffset="50%"
           xlink:href="#path4424">docling text archive</textPath></text>
      <path
         inkscape:connector-curvature="0"
         id="path4424"
         d="m -1291.4286,-33221.923 c 0,0 457.14289,165.714 902.85717,165.714 445.714287,0 1062.85714,-142.857 1062.85714,-142.857"
         style="fill:none;fill-rule:evenodd;stroke:none;stroke-width:1px;stroke-linecap:butt;stroke-linejoin:miter;stroke-opacity:1" />
    </g>
  </g>
</svg>
